<svg width="195" height="155" viewBox="0 0 195 155" fill="none" xmlns="http://www.w3.org/2000/svg">
<path d="M106.212 26.335C120.512 26.5364 135.014 26.335 149.314 27.3423C155.759 27.7452 162.204 30.1626 168.045 32.7814C175.9 36.4075 181.942 41.0409 184.561 49.7033C185.165 51.5163 186.977 53.3294 188.79 54.1352C197.854 58.7686 205.104 65.215 211.952 72.4672C220.009 80.9281 221.62 91.0007 220.814 101.879C218.397 137.133 201.076 162.314 169.253 177.222C167.441 178.027 165.829 179.236 164.218 180.445C148.911 194.748 130.784 202 109.636 202C89.4954 201.799 71.7714 194.546 56.6657 180.848C54.6516 179.035 52.2347 177.222 49.6164 176.214C15.7796 160.501 -4.56275 123.434 0.875302 86.7702C1.07671 84.7557 2.08377 82.9426 3.09082 81.1296C10.1401 69.4454 19.8078 60.5816 31.6909 54.1352C33.9064 52.9265 36.1219 50.7105 36.7262 48.4946C39.1431 40.638 44.3797 36.0046 51.8319 32.7814C62.3051 28.3495 76.4038 25.9321 90.7038 26.1335L106.212 26.335ZM83.4531 51.1134C75.5981 57.157 67.3403 71.2585 65.5277 81.9354C63.1108 96.2384 67.7432 107.117 80.0292 114.57C98.156 125.449 116.887 125.449 136.021 117.391C141.258 115.175 142.466 111.146 141.459 106.512C140.855 103.289 139.042 99.663 136.827 97.2456C133.201 93.4181 128.77 90.1949 124.138 87.3746C115.88 82.1368 107.219 77.5035 99.163 72.2658C91.7109 67.028 85.2658 60.7831 83.4531 51.1134ZM134.812 155.263C86.0714 161.71 44.5811 148.817 11.3486 111.146C17.5923 140.356 33.9064 160.904 62.1037 170.171C89.0925 179.236 113.463 173.394 134.812 155.263ZM209.535 110.944C193.423 129.075 184.561 136.529 166.434 144.385C158.78 147.81 152.335 151.839 146.897 158.285C142.667 163.321 136.625 166.948 131.389 170.977C130.381 171.782 129.576 172.588 128.166 173.595C167.642 177.826 205.507 148.616 209.535 110.944ZM134.007 47.4873C125.346 60.3802 112.657 60.3801 98.9616 58.3656C104.4 62.7976 110.039 66.6251 115.679 70.2513C129.576 78.9136 145.689 84.9571 152.738 101.879C160.794 85.9644 151.328 59.5744 134.007 47.4873ZM96.5447 132.298C112.859 143.176 129.374 145.594 146.091 137.334C167.844 126.657 177.108 107.318 179.525 84.1513C163.413 119.405 136.827 136.327 96.5447 132.298ZM32.2952 67.028C31.6909 66.6251 31.0867 66.2222 30.4825 66.0208C24.843 72.2657 19.0022 78.5107 13.3627 84.9572C12.5571 85.9644 12.3556 88.1803 12.7584 89.5905C18.8007 107.721 31.8923 119.808 48.005 129.276C34.3092 110.34 29.274 89.5905 32.2952 67.028ZM188.991 66.2222C191.811 89.3891 187.179 109.736 174.289 128.068C190.2 118.801 202.889 106.714 208.73 88.9862C209.132 87.9789 209.132 86.5688 208.528 85.7629C203.694 77.9064 197.853 71.46 188.991 66.2222ZM83.8559 36.4075C71.9728 36.609 61.9023 39.0264 52.8389 44.4656C51.6305 45.0699 50.2205 46.4801 50.0191 47.6888C47.4008 60.5816 48.6093 73.0716 54.6516 85.3601C57.4713 65.215 67.9446 49.9047 83.8559 36.4075ZM166.434 85.3601C173.08 75.8919 173.886 55.7468 171.267 47.0844C171.066 46.4801 170.663 45.8757 170.26 45.4728C165.225 41.4438 145.286 34.5945 138.438 37.4148C153.141 49.9047 163.614 65.215 166.434 85.3601ZM42.3656 84.7557C43.7755 116.383 68.146 140.759 90.0996 141.162C84.6616 134.917 79.6263 127.262 72.9798 122.226C59.0826 112.354 48.6093 100.469 42.3656 84.7557ZM80.8348 185.28C96.5447 195.554 128.972 194.143 139.243 185.28C130.986 184.071 121.922 182.661 112.657 181.251C111.449 181.049 110.039 181.049 108.629 181.251C99.163 182.459 89.6968 183.869 80.8348 185.28ZM110.241 49.7033C114.269 48.2931 118.095 47.4873 121.721 45.8757C124.742 44.4656 124.943 41.8467 122.124 39.6308C116.887 35.4003 103.997 35.4003 98.9616 39.6308C96.3433 41.8467 96.1419 44.2641 99.163 45.6743C102.386 47.4873 106.414 48.2931 110.241 49.7033Z" fill="#FFD9DF"/>
<path d="M110.241 13.3211C110.241 13.3211 89.2947 9.29205 100.171 2.84563C103.595 0.83112 107.623 -0.176152 111.45 0.0252988C113.867 0.0252988 116.485 0.428206 119.103 1.63691C119.305 1.43546 134.209 8.48624 110.241 13.3211Z" fill="#FFD9DF"/>
</svg>
